<mxfile host="www.draw.io" modified="2020-02-22T14:19:16.242Z" agent="Mozilla/5.0 (Macintosh; Intel Mac OS X 10_12_6) AppleWebKit/537.36 (KHTML, like Gecko) Chrome/80.0.3987.116 Safari/537.36" etag="SK98Ty9EccI0GO7sdjmK" version="12.7.4" type="github" pages="3">
  <diagram id="NicKrYoGJLILaWsg-6yA" name="Page-1">
    <mxGraphModel dx="885" dy="483" grid="1" gridSize="10" guides="1" tooltips="1" connect="1" arrows="1" fold="1" page="1" pageScale="1" pageWidth="827" pageHeight="1169" math="0" shadow="0">
      <root>
        <mxCell id="0" />
        <mxCell id="1" parent="0" />
        <mxCell id="utbQvF63ZhHKKfhgUTnN-2" value="Network&lt;br&gt;Element" style="ellipse;whiteSpace=wrap;html=1;align=center;shadow=1;fillColor=#FFFFFF;strokeColor=#B5739D;" parent="1" vertex="1">
          <mxGeometry x="210" y="150" width="100" height="40" as="geometry" />
        </mxCell>
        <mxCell id="R7SxEd2yhtCLK-IYGCdC-3" style="rounded=0;orthogonalLoop=1;jettySize=auto;html=1;exitX=0.5;exitY=0;exitDx=0;exitDy=0;entryX=0;entryY=1;entryDx=0;entryDy=0;strokeColor=#B5739D;" edge="1" parent="1" source="R7SxEd2yhtCLK-IYGCdC-43" target="utbQvF63ZhHKKfhgUTnN-2">
          <mxGeometry relative="1" as="geometry">
            <mxPoint x="180" y="230" as="sourcePoint" />
          </mxGeometry>
        </mxCell>
        <mxCell id="R7SxEd2yhtCLK-IYGCdC-5" value="is-a" style="text;html=1;align=center;verticalAlign=middle;resizable=0;points=[];labelBackgroundColor=#ffffff;" vertex="1" connectable="0" parent="R7SxEd2yhtCLK-IYGCdC-3">
          <mxGeometry x="0.0606" relative="1" as="geometry">
            <mxPoint as="offset" />
          </mxGeometry>
        </mxCell>
        <mxCell id="R7SxEd2yhtCLK-IYGCdC-9" style="edgeStyle=none;rounded=0;orthogonalLoop=1;jettySize=auto;html=1;exitX=1;exitY=1;exitDx=0;exitDy=0;entryX=0.5;entryY=0;entryDx=0;entryDy=0;strokeColor=#B5739D;" edge="1" parent="1">
          <mxGeometry relative="1" as="geometry">
            <mxPoint x="215.2130657752209" y="264.1988168448472" as="sourcePoint" />
            <mxPoint x="260" y="320" as="targetPoint" />
          </mxGeometry>
        </mxCell>
        <mxCell id="R7SxEd2yhtCLK-IYGCdC-11" value="beAbleTo" style="text;html=1;align=center;verticalAlign=middle;resizable=0;points=[];labelBackgroundColor=#ffffff;" vertex="1" connectable="0" parent="R7SxEd2yhtCLK-IYGCdC-9">
          <mxGeometry x="-0.0668" y="-1" relative="1" as="geometry">
            <mxPoint as="offset" />
          </mxGeometry>
        </mxCell>
        <mxCell id="R7SxEd2yhtCLK-IYGCdC-10" value="hasAttribute" style="edgeStyle=none;rounded=0;orthogonalLoop=1;jettySize=auto;html=1;exitX=0;exitY=1;exitDx=0;exitDy=0;entryX=0.5;entryY=0;entryDx=0;entryDy=0;strokeColor=#B5739D;" edge="1" parent="1" source="R7SxEd2yhtCLK-IYGCdC-43">
          <mxGeometry relative="1" as="geometry">
            <mxPoint x="144.78693422477886" y="264.19881684484733" as="sourcePoint" />
            <mxPoint x="90" y="320" as="targetPoint" />
          </mxGeometry>
        </mxCell>
        <mxCell id="R7SxEd2yhtCLK-IYGCdC-4" style="edgeStyle=none;rounded=0;orthogonalLoop=1;jettySize=auto;html=1;exitX=0.5;exitY=0;exitDx=0;exitDy=0;entryX=1;entryY=1;entryDx=0;entryDy=0;strokeColor=#B5739D;" edge="1" parent="1" source="R7SxEd2yhtCLK-IYGCdC-42" target="utbQvF63ZhHKKfhgUTnN-2">
          <mxGeometry relative="1" as="geometry">
            <mxPoint x="320" y="230" as="sourcePoint" />
          </mxGeometry>
        </mxCell>
        <mxCell id="R7SxEd2yhtCLK-IYGCdC-6" value="is-a" style="text;html=1;align=center;verticalAlign=middle;resizable=0;points=[];labelBackgroundColor=#ffffff;" vertex="1" connectable="0" parent="R7SxEd2yhtCLK-IYGCdC-4">
          <mxGeometry x="-0.1027" y="1" relative="1" as="geometry">
            <mxPoint as="offset" />
          </mxGeometry>
        </mxCell>
        <mxCell id="R7SxEd2yhtCLK-IYGCdC-16" style="edgeStyle=none;rounded=0;orthogonalLoop=1;jettySize=auto;html=1;exitX=0.5;exitY=0;exitDx=0;exitDy=0;entryX=0;entryY=1;entryDx=0;entryDy=0;strokeColor=#B5739D;" edge="1" parent="1">
          <mxGeometry relative="1" as="geometry">
            <mxPoint x="190" y="390" as="sourcePoint" />
            <mxPoint x="224.78693422477613" y="354.19881684484824" as="targetPoint" />
          </mxGeometry>
        </mxCell>
        <mxCell id="R7SxEd2yhtCLK-IYGCdC-17" value="is-a" style="text;html=1;align=center;verticalAlign=middle;resizable=0;points=[];labelBackgroundColor=#ffffff;" vertex="1" connectable="0" parent="R7SxEd2yhtCLK-IYGCdC-16">
          <mxGeometry x="0.0785" y="-3" relative="1" as="geometry">
            <mxPoint as="offset" />
          </mxGeometry>
        </mxCell>
        <mxCell id="R7SxEd2yhtCLK-IYGCdC-14" style="edgeStyle=none;rounded=0;orthogonalLoop=1;jettySize=auto;html=1;exitX=0.5;exitY=0;exitDx=0;exitDy=0;entryX=1;entryY=1;entryDx=0;entryDy=0;strokeColor=#B5739D;" edge="1" parent="1">
          <mxGeometry relative="1" as="geometry">
            <mxPoint x="330" y="390" as="sourcePoint" />
            <mxPoint x="295.21306577522387" y="354.19881684484824" as="targetPoint" />
          </mxGeometry>
        </mxCell>
        <mxCell id="R7SxEd2yhtCLK-IYGCdC-18" value="is-a" style="text;html=1;align=center;verticalAlign=middle;resizable=0;points=[];labelBackgroundColor=#ffffff;" vertex="1" connectable="0" parent="R7SxEd2yhtCLK-IYGCdC-14">
          <mxGeometry x="-0.1685" y="-1" relative="1" as="geometry">
            <mxPoint as="offset" />
          </mxGeometry>
        </mxCell>
        <mxCell id="R7SxEd2yhtCLK-IYGCdC-28" value="hasName" style="edgeStyle=none;rounded=0;orthogonalLoop=1;jettySize=auto;html=1;exitX=0;exitY=1;exitDx=0;exitDy=0;entryX=0.5;entryY=0.231;entryDx=0;entryDy=0;entryPerimeter=0;strokeColor=#B5739D;" edge="1" parent="1" target="R7SxEd2yhtCLK-IYGCdC-27">
          <mxGeometry relative="1" as="geometry">
            <mxPoint x="294.78693422477613" y="424.19881684484824" as="sourcePoint" />
          </mxGeometry>
        </mxCell>
        <mxCell id="R7SxEd2yhtCLK-IYGCdC-29" value="hasRunTime" style="edgeStyle=none;rounded=0;orthogonalLoop=1;jettySize=auto;html=1;exitX=1;exitY=1;exitDx=0;exitDy=0;entryX=0.5;entryY=0;entryDx=0;entryDy=0;strokeColor=#B5739D;" edge="1" parent="1">
          <mxGeometry relative="1" as="geometry">
            <mxPoint x="365.21306577522387" y="424.19881684484824" as="sourcePoint" />
            <mxPoint x="390" y="470" as="targetPoint" />
          </mxGeometry>
        </mxCell>
        <mxCell id="R7SxEd2yhtCLK-IYGCdC-27" value="String" style="text;strokeColor=none;fillColor=none;spacingLeft=4;spacingRight=4;overflow=hidden;rotatable=0;points=[[0,0.5],[1,0.5]];portConstraint=eastwest;fontSize=12;" vertex="1" parent="1">
          <mxGeometry x="240" y="470" width="50" height="26" as="geometry" />
        </mxCell>
        <mxCell id="R7SxEd2yhtCLK-IYGCdC-42" value="Connection" style="ellipse;whiteSpace=wrap;html=1;align=center;shadow=1;fillColor=#FFFFFF;strokeColor=#B5739D;" vertex="1" parent="1">
          <mxGeometry x="290" y="230" width="100" height="40" as="geometry" />
        </mxCell>
        <mxCell id="R7SxEd2yhtCLK-IYGCdC-43" value="Node" style="ellipse;whiteSpace=wrap;html=1;align=center;shadow=1;fillColor=#FFFFFF;strokeColor=#B5739D;" vertex="1" parent="1">
          <mxGeometry x="130" y="230" width="100" height="40" as="geometry" />
        </mxCell>
        <mxCell id="R7SxEd2yhtCLK-IYGCdC-44" value="Attribute" style="ellipse;whiteSpace=wrap;html=1;align=center;shadow=1;fillColor=#FFFFFF;strokeColor=#B5739D;" vertex="1" parent="1">
          <mxGeometry x="40" y="320" width="100" height="40" as="geometry" />
        </mxCell>
        <mxCell id="R7SxEd2yhtCLK-IYGCdC-45" value="Action" style="ellipse;whiteSpace=wrap;html=1;align=center;shadow=1;fillColor=#FFFFFF;strokeColor=#B5739D;" vertex="1" parent="1">
          <mxGeometry x="214" y="320" width="100" height="40" as="geometry" />
        </mxCell>
        <mxCell id="R7SxEd2yhtCLK-IYGCdC-46" value="Instant&lt;br&gt;Action" style="ellipse;whiteSpace=wrap;html=1;align=center;shadow=1;fillColor=#FFFFFF;strokeColor=#B5739D;" vertex="1" parent="1">
          <mxGeometry x="130" y="390" width="100" height="40" as="geometry" />
        </mxCell>
        <mxCell id="R7SxEd2yhtCLK-IYGCdC-47" value="Persistent&lt;br&gt;Action" style="ellipse;whiteSpace=wrap;html=1;align=center;shadow=1;fillColor=#FFFFFF;strokeColor=#B5739D;" vertex="1" parent="1">
          <mxGeometry x="280" y="390" width="100" height="40" as="geometry" />
        </mxCell>
        <mxCell id="R7SxEd2yhtCLK-IYGCdC-48" value="RunTime" style="ellipse;whiteSpace=wrap;html=1;align=center;shadow=1;fillColor=#FFFFFF;strokeColor=#B5739D;" vertex="1" parent="1">
          <mxGeometry x="340" y="470" width="100" height="40" as="geometry" />
        </mxCell>
        <mxCell id="R7SxEd2yhtCLK-IYGCdC-66" value="App&lt;br&gt;Managment" style="ellipse;whiteSpace=wrap;html=1;align=center;shadow=1;fillColor=#FFFFFF;strokeColor=#B5739D;" vertex="1" parent="1">
          <mxGeometry x="120" y="496" width="100" height="40" as="geometry" />
        </mxCell>
      </root>
    </mxGraphModel>
  </diagram>
  <diagram id="AbruC13679xvj_PxLq3X" name="Page-2">
    <mxGraphModel dx="885" dy="483" grid="1" gridSize="10" guides="1" tooltips="1" connect="1" arrows="1" fold="1" page="1" pageScale="1" pageWidth="827" pageHeight="1169" math="0" shadow="0">
      <root>
        <mxCell id="HCqZYZUQ9AktdlW0nJUf-0" />
        <mxCell id="HCqZYZUQ9AktdlW0nJUf-1" parent="HCqZYZUQ9AktdlW0nJUf-0" />
        <mxCell id="HCqZYZUQ9AktdlW0nJUf-2" style="edgeStyle=none;rounded=0;orthogonalLoop=1;jettySize=auto;html=1;exitX=1;exitY=0;exitDx=0;exitDy=0;entryX=0.087;entryY=0.834;entryDx=0;entryDy=0;strokeColor=#B5739D;entryPerimeter=0;" edge="1" parent="HCqZYZUQ9AktdlW0nJUf-1" source="HCqZYZUQ9AktdlW0nJUf-10" target="HCqZYZUQ9AktdlW0nJUf-14">
          <mxGeometry relative="1" as="geometry">
            <mxPoint x="170" y="170" as="sourcePoint" />
            <mxPoint x="294.78693422477613" y="144.19881684484847" as="targetPoint" />
          </mxGeometry>
        </mxCell>
        <mxCell id="HCqZYZUQ9AktdlW0nJUf-3" value="is-a" style="text;html=1;align=center;verticalAlign=middle;resizable=0;points=[];labelBackgroundColor=#ffffff;" vertex="1" connectable="0" parent="HCqZYZUQ9AktdlW0nJUf-2">
          <mxGeometry x="0.0582" y="3" relative="1" as="geometry">
            <mxPoint as="offset" />
          </mxGeometry>
        </mxCell>
        <mxCell id="HCqZYZUQ9AktdlW0nJUf-4" style="edgeStyle=none;rounded=0;orthogonalLoop=1;jettySize=auto;html=1;exitX=0.5;exitY=0;exitDx=0;exitDy=0;strokeColor=#B5739D;entryX=0.311;entryY=1.014;entryDx=0;entryDy=0;entryPerimeter=0;" edge="1" parent="HCqZYZUQ9AktdlW0nJUf-1" source="HCqZYZUQ9AktdlW0nJUf-11" target="HCqZYZUQ9AktdlW0nJUf-14">
          <mxGeometry relative="1" as="geometry">
            <mxPoint x="270" y="210" as="sourcePoint" />
            <mxPoint x="320" y="151" as="targetPoint" />
          </mxGeometry>
        </mxCell>
        <mxCell id="HCqZYZUQ9AktdlW0nJUf-5" value="is-a" style="text;html=1;align=center;verticalAlign=middle;resizable=0;points=[];labelBackgroundColor=#ffffff;" vertex="1" connectable="0" parent="HCqZYZUQ9AktdlW0nJUf-4">
          <mxGeometry x="0.0396" y="-2" relative="1" as="geometry">
            <mxPoint as="offset" />
          </mxGeometry>
        </mxCell>
        <mxCell id="HCqZYZUQ9AktdlW0nJUf-6" style="edgeStyle=none;rounded=0;orthogonalLoop=1;jettySize=auto;html=1;exitX=0.65;exitY=1.025;exitDx=0;exitDy=0;entryX=0.5;entryY=0;entryDx=0;entryDy=0;exitPerimeter=0;strokeColor=#B5739D;" edge="1" parent="HCqZYZUQ9AktdlW0nJUf-1" target="HCqZYZUQ9AktdlW0nJUf-12">
          <mxGeometry relative="1" as="geometry">
            <mxPoint x="345" y="151" as="sourcePoint" />
            <mxPoint x="390" y="210" as="targetPoint" />
          </mxGeometry>
        </mxCell>
        <mxCell id="HCqZYZUQ9AktdlW0nJUf-7" value="from" style="text;html=1;align=center;verticalAlign=middle;resizable=0;points=[];labelBackgroundColor=#ffffff;" vertex="1" connectable="0" parent="HCqZYZUQ9AktdlW0nJUf-6">
          <mxGeometry x="-0.0127" y="-1" relative="1" as="geometry">
            <mxPoint x="1" as="offset" />
          </mxGeometry>
        </mxCell>
        <mxCell id="HCqZYZUQ9AktdlW0nJUf-8" style="edgeStyle=none;rounded=0;orthogonalLoop=1;jettySize=auto;html=1;exitX=1;exitY=1;exitDx=0;exitDy=0;entryX=0;entryY=0;entryDx=0;entryDy=0;strokeColor=#B5739D;" edge="1" parent="HCqZYZUQ9AktdlW0nJUf-1" target="HCqZYZUQ9AktdlW0nJUf-13">
          <mxGeometry relative="1" as="geometry">
            <mxPoint x="365.21306577522387" y="144.19881684484835" as="sourcePoint" />
            <mxPoint x="490" y="170" as="targetPoint" />
          </mxGeometry>
        </mxCell>
        <mxCell id="HCqZYZUQ9AktdlW0nJUf-9" value="to" style="text;html=1;align=center;verticalAlign=middle;resizable=0;points=[];labelBackgroundColor=#ffffff;" vertex="1" connectable="0" parent="HCqZYZUQ9AktdlW0nJUf-8">
          <mxGeometry x="-0.0124" y="1" relative="1" as="geometry">
            <mxPoint as="offset" />
          </mxGeometry>
        </mxCell>
        <mxCell id="HCqZYZUQ9AktdlW0nJUf-10" value="Link" style="ellipse;whiteSpace=wrap;html=1;align=center;shadow=1;fillColor=#FFFFFF;strokeColor=#B5739D;" vertex="1" parent="HCqZYZUQ9AktdlW0nJUf-1">
          <mxGeometry x="120" y="160" width="100" height="40" as="geometry" />
        </mxCell>
        <mxCell id="HCqZYZUQ9AktdlW0nJUf-11" value="Communication" style="ellipse;whiteSpace=wrap;html=1;align=center;shadow=1;fillColor=#FFFFFF;strokeColor=#B5739D;" vertex="1" parent="HCqZYZUQ9AktdlW0nJUf-1">
          <mxGeometry x="210" y="210" width="100" height="40" as="geometry" />
        </mxCell>
        <mxCell id="HCqZYZUQ9AktdlW0nJUf-12" value="Node" style="ellipse;whiteSpace=wrap;html=1;align=center;shadow=1;fillColor=#FFFFFF;strokeColor=#B5739D;" vertex="1" parent="HCqZYZUQ9AktdlW0nJUf-1">
          <mxGeometry x="340" y="210" width="100" height="40" as="geometry" />
        </mxCell>
        <mxCell id="HCqZYZUQ9AktdlW0nJUf-13" value="Node" style="ellipse;whiteSpace=wrap;html=1;align=center;shadow=1;fillColor=#FFFFFF;strokeColor=#B5739D;" vertex="1" parent="HCqZYZUQ9AktdlW0nJUf-1">
          <mxGeometry x="430" y="160" width="100" height="40" as="geometry" />
        </mxCell>
        <mxCell id="HCqZYZUQ9AktdlW0nJUf-14" value="Connection" style="ellipse;whiteSpace=wrap;html=1;align=center;shadow=1;fillColor=#FFFFFF;strokeColor=#B5739D;" vertex="1" parent="HCqZYZUQ9AktdlW0nJUf-1">
          <mxGeometry x="280" y="110" width="100" height="40" as="geometry" />
        </mxCell>
      </root>
    </mxGraphModel>
  </diagram>
  <diagram id="ekSkw2KnHqDSPge1tszq" name="Page-3">
    <mxGraphModel dx="885" dy="483" grid="1" gridSize="10" guides="1" tooltips="1" connect="1" arrows="1" fold="1" page="1" pageScale="1" pageWidth="827" pageHeight="1169" math="0" shadow="0">
      <root>
        <mxCell id="a_nWRPTZWH9uXr03FxxT-0" />
        <mxCell id="a_nWRPTZWH9uXr03FxxT-1" parent="a_nWRPTZWH9uXr03FxxT-0" />
        <mxCell id="a_nWRPTZWH9uXr03FxxT-18" value="UE" style="ellipse;whiteSpace=wrap;html=1;align=center;shadow=1;fillColor=#FFFFFF;strokeColor=#B5739D;" vertex="1" parent="a_nWRPTZWH9uXr03FxxT-1">
          <mxGeometry x="380" y="280" width="100" height="40" as="geometry" />
        </mxCell>
        <mxCell id="a_nWRPTZWH9uXr03FxxT-19" value="Hardware&lt;br&gt;Performance" style="ellipse;whiteSpace=wrap;html=1;align=center;shadow=1;fillColor=#FFFFFF;strokeColor=#B5739D;" vertex="1" parent="a_nWRPTZWH9uXr03FxxT-1">
          <mxGeometry x="230" y="465" width="100" height="40" as="geometry" />
        </mxCell>
        <mxCell id="a_nWRPTZWH9uXr03FxxT-20" value="OS" style="ellipse;whiteSpace=wrap;html=1;align=center;shadow=1;fillColor=#FFFFFF;strokeColor=#B5739D;" vertex="1" parent="a_nWRPTZWH9uXr03FxxT-1">
          <mxGeometry x="170" y="410" width="100" height="40" as="geometry" />
        </mxCell>
        <mxCell id="a_nWRPTZWH9uXr03FxxT-21" value="WayTo&lt;br&gt;GetInternet" style="ellipse;whiteSpace=wrap;html=1;align=center;shadow=1;fillColor=#FFFFFF;strokeColor=#B5739D;" vertex="1" parent="a_nWRPTZWH9uXr03FxxT-1">
          <mxGeometry x="150" y="175" width="100" height="40" as="geometry" />
        </mxCell>
        <mxCell id="a_nWRPTZWH9uXr03FxxT-22" value="监控指标" style="ellipse;whiteSpace=wrap;html=1;align=center;shadow=1;fillColor=#FFFFFF;strokeColor=#B5739D;" vertex="1" parent="a_nWRPTZWH9uXr03FxxT-1">
          <mxGeometry x="170" y="120" width="100" height="40" as="geometry" />
        </mxCell>
        <mxCell id="a_nWRPTZWH9uXr03FxxT-23" value="Moving&amp;nbsp;&lt;br&gt;Manner" style="ellipse;whiteSpace=wrap;html=1;align=center;shadow=1;fillColor=#FFFFFF;strokeColor=#B5739D;" vertex="1" parent="a_nWRPTZWH9uXr03FxxT-1">
          <mxGeometry x="597" y="400" width="100" height="40" as="geometry" />
        </mxCell>
        <mxCell id="a_nWRPTZWH9uXr03FxxT-24" value="Location" style="ellipse;whiteSpace=wrap;html=1;align=center;shadow=1;fillColor=#FFFFFF;strokeColor=#B5739D;" vertex="1" parent="a_nWRPTZWH9uXr03FxxT-1">
          <mxGeometry x="170" y="270" width="100" height="40" as="geometry" />
        </mxCell>
        <mxCell id="a_nWRPTZWH9uXr03FxxT-25" value="Charging" style="ellipse;whiteSpace=wrap;html=1;align=center;shadow=1;fillColor=#FFFFFF;strokeColor=#B5739D;" vertex="1" parent="a_nWRPTZWH9uXr03FxxT-1">
          <mxGeometry x="610" y="215" width="100" height="40" as="geometry" />
        </mxCell>
        <mxCell id="a_nWRPTZWH9uXr03FxxT-26" value="StateAction" style="ellipse;whiteSpace=wrap;html=1;align=center;shadow=1;fillColor=#FFFFFF;strokeColor=#B5739D;" vertex="1" parent="a_nWRPTZWH9uXr03FxxT-1">
          <mxGeometry x="497" y="105" width="100" height="40" as="geometry" />
        </mxCell>
        <mxCell id="a_nWRPTZWH9uXr03FxxT-27" value="BatteryLife" style="ellipse;whiteSpace=wrap;html=1;align=center;shadow=1;fillColor=#FFFFFF;strokeColor=#B5739D;" vertex="1" parent="a_nWRPTZWH9uXr03FxxT-1">
          <mxGeometry x="200" y="215" width="100" height="40" as="geometry" />
        </mxCell>
        <mxCell id="a_nWRPTZWH9uXr03FxxT-28" value="State&lt;br&gt;Setting" style="ellipse;whiteSpace=wrap;html=1;align=center;shadow=1;fillColor=#FFFFFF;strokeColor=#B5739D;" vertex="1" parent="a_nWRPTZWH9uXr03FxxT-1">
          <mxGeometry x="640" y="330" width="100" height="40" as="geometry" />
        </mxCell>
        <mxCell id="a_nWRPTZWH9uXr03FxxT-29" value="Changing&lt;br&gt;State" style="ellipse;whiteSpace=wrap;html=1;align=center;shadow=1;fillColor=#FFFFFF;strokeColor=#B5739D;" vertex="1" parent="a_nWRPTZWH9uXr03FxxT-1">
          <mxGeometry x="567" y="160" width="100" height="40" as="geometry" />
        </mxCell>
        <mxCell id="a_nWRPTZWH9uXr03FxxT-30" value="OS&lt;br&gt;Mangment" style="ellipse;whiteSpace=wrap;html=1;align=center;shadow=1;fillColor=#FFFFFF;strokeColor=#B5739D;" vertex="1" parent="a_nWRPTZWH9uXr03FxxT-1">
          <mxGeometry x="560" y="505" width="100" height="40" as="geometry" />
        </mxCell>
        <mxCell id="a_nWRPTZWH9uXr03FxxT-31" value="Getting&lt;br&gt;InternetBy" style="ellipse;whiteSpace=wrap;html=1;align=center;shadow=1;fillColor=#FFFFFF;strokeColor=#B5739D;" vertex="1" parent="a_nWRPTZWH9uXr03FxxT-1">
          <mxGeometry x="630" y="270" width="100" height="40" as="geometry" />
        </mxCell>
        <mxCell id="a_nWRPTZWH9uXr03FxxT-32" value="Package&lt;br&gt;Capturing" style="ellipse;whiteSpace=wrap;html=1;align=center;shadow=1;fillColor=#FFFFFF;strokeColor=#B5739D;" vertex="1" parent="a_nWRPTZWH9uXr03FxxT-1">
          <mxGeometry x="580" y="450" width="100" height="40" as="geometry" />
        </mxCell>
        <mxCell id="a_nWRPTZWH9uXr03FxxT-33" value="Lifetime" style="ellipse;whiteSpace=wrap;html=1;align=center;shadow=1;fillColor=#FFFFFF;strokeColor=#B5739D;" vertex="1" parent="a_nWRPTZWH9uXr03FxxT-1">
          <mxGeometry x="190" y="330" width="100" height="40" as="geometry" />
        </mxCell>
      </root>
    </mxGraphModel>
  </diagram>
</mxfile>
